<?xml version="1.0" encoding="UTF-8"?>
<svg xmlns="http://www.w3.org/2000/svg" width="1000" height="600" viewBox="0 0 1000 600">
  <defs>
    <style type="text/css">
      .diagram-bg { fill: #f8f9fa; }
      .stage-box { fill: #e3f2fd; stroke: #1976d2; stroke-width: 2; }
      .stage-text { font-family: 'Arial', sans-serif; font-size: 12px; fill: #1976d2; text-anchor: middle; }
      .arrow { stroke: #424242; stroke-width: 2; fill: none; marker-end: url(#arrowhead); }
      .title-text { font-family: 'Arial', sans-serif; font-size: 18px; font-weight: bold; fill: #1976d2; text-anchor: middle; }
    </style>
    <marker id="arrowhead" markerWidth="10" markerHeight="7" refX="9" refY="3.5" orient="auto">
      <polygon points="0 0, 10 3.5, 0 7" fill="#424242"/>
    </marker>
  </defs>

  <!-- Background -->
  <rect class="diagram-bg" width="100%" height="100%"/>

  <!-- Title -->
  <text x="500" y="30" class="title-text">Ghostty Installation Process</text>

  <rect class="stage-box" x="25" y="260" width="150" height="80" rx="8"/>
  <text x="100" y="300" class="stage-text">System Check</text>
  <line class="arrow" x1="175" y1="300" x2="225" y2="300"/>
  <rect class="stage-box" x="225" y="260" width="150" height="80" rx="8"/>
  <text x="300" y="300" class="stage-text">Dependencies</text>
  <line class="arrow" x1="375" y1="300" x2="425" y2="300"/>
  <rect class="stage-box" x="425" y="260" width="150" height="80" rx="8"/>
  <text x="500" y="294" class="stage-text">Zig </text>
  <text x="500" y="306" class="stage-text">Installation</text>
  <line class="arrow" x1="575" y1="300" x2="625" y2="300"/>
  <rect class="stage-box" x="625" y="260" width="150" height="80" rx="8"/>
  <text x="700" y="300" class="stage-text">Ghostty Build</text>
  <line class="arrow" x1="775" y1="300" x2="825" y2="300"/>
  <rect class="stage-box" x="825" y="260" width="150" height="80" rx="8"/>
  <text x="900" y="300" class="stage-text">Configuration</text>
  <line class="arrow" x1="975" y1="300" x2="1025" y2="300"/>
  <rect class="stage-box" x="1025" y="260" width="150" height="80" rx="8"/>
  <text x="1100" y="300" class="stage-text">Context Menu</text>
  <line class="arrow" x1="1175" y1="300" x2="1225" y2="300"/>
  <rect class="stage-box" x="1225" y="260" width="150" height="80" rx="8"/>
  <text x="1300" y="300" class="stage-text">Verification</text>

  <!-- Timestamp -->
  <text x="990" y="590" style="font-size: 10px; fill: #666; text-anchor: end;">Generated: 2025-09-23 09:50:40</text>
</svg>
