<svg width="132" height="32" viewBox="0 0 132 32" fill="none" xmlns="http://www.w3.org/2000/svg">
<g clip-path="url(#clip0_8215_221)">
<path d="M48.4947 6.59229C53.2091 6.59229 55.8629 9.29763 56.1302 13.0228H53.4506C53.1552 10.451 51.4415 9.00459 48.6283 9.00459H48.3611C44.6102 9.00459 42.0642 11.7099 42.0642 16.2392C42.0642 20.7145 44.6102 23.4737 48.3611 23.4737H48.6283C51.9244 23.4737 53.8538 21.4647 53.8538 18.9984V18.4897H48.4947V16.1055H53.9874C55.462 16.1055 56.2638 16.8815 56.2638 18.3819V25.6165H53.8515V23.4995C53.2349 24.4373 51.3595 25.8837 48.4924 25.8837C43.0535 25.8837 39.3823 21.8374 39.3823 16.2392C39.3823 10.6128 42.9457 6.59463 48.4924 6.59463L48.4947 6.59229ZM58.7816 6.86188H61.3275V14.0965C62.2113 12.7836 63.5781 11.9538 65.6153 11.9538C68.6418 11.9538 70.4376 13.8292 70.4376 16.6424V25.6188H67.8916V16.9377C67.8916 15.3546 67.0664 14.3912 65.2172 14.3912C63.2342 14.3912 61.3275 15.5729 61.3275 17.6625V25.6188H58.7816V6.86188ZM73.3967 16.2392C73.3967 12.5158 76.2567 11.9538 77.8398 11.9538C79.4276 11.9538 82.2875 12.5158 82.2875 16.2392C82.2875 19.9579 79.4276 20.5247 77.8398 20.5247C76.2567 20.5247 73.3967 19.9579 73.3967 16.2392ZM70.8507 16.2392C70.8507 21.3295 74.5201 22.9619 77.8398 22.9619C81.1594 22.9619 84.8334 21.3295 84.8334 16.2392C84.8334 11.149 81.1594 9.51655 77.8398 9.51655C74.5201 9.51655 70.8507 11.149 70.8507 16.2392ZM87.4058 19.5461C87.4058 21.1222 88.7187 22.3086 90.7279 22.3086C92.7348 22.3086 93.7889 21.4975 93.7889 20.3768C93.7889 19.2047 92.3675 18.8584 91.1248 18.6215C88.8046 18.1714 86.3681 17.3486 86.3681 14.2779C86.3681 12.0671 88.1873 9.51655 92.4096 9.51655C95.5498 9.51655 97.4186 11.2853 97.4186 13.8573H94.8449C94.8449 12.6242 93.9542 11.9538 92.4096 11.9538C90.7606 11.9538 88.9483 12.6522 88.9483 14.2779C88.9483 15.3523 89.8297 15.6985 91.2698 16.0214C93.2738 16.4457 96.369 17.1159 96.369 20.3768C96.369 23.5212 93.8324 25.8861 90.7279 25.8861C87.6467 25.8861 84.8264 24.0598 84.8264 19.5461H87.4058ZM98.936 12.2171H103.006V14.6559H98.936V20.8466C98.936 21.9444 99.4166 22.3086 100.481 22.3086H103.006V24.7473H100.107C98.4671 24.7473 96.3902 24.0294 96.3902 21.2887V14.6559H94.3834V12.2171H96.3902V8.14482H98.936V12.2171ZM104.488 12.2171H108.558V14.6559H104.488V20.8466C104.488 21.9444 104.968 22.3086 106.033 22.3086H108.558V24.7473H105.659C104.019 24.7473 101.942 24.0294 101.942 21.2887V14.6559H99.9354V12.2171H101.942V8.14482H104.488V12.2171ZM110.081 27.3954V24.9566C110.642 25.0777 111.135 25.1058 111.617 25.1058C112.801 25.1058 113.613 24.5765 114.075 23.4315L114.263 22.9901L109.155 12.2148H111.872L115.593 20.5434L119.255 12.2148H121.969L116.38 24.2412C115.382 26.7945 113.881 27.7137 111.617 27.7137C111.135 27.7137 110.642 27.6902 110.081 27.5597V27.3954Z" fill="currentColor"/>
<path d="M14.9056 14.5C17.8963 14.5 20.2805 16.8842 20.2805 19.875C20.2805 22.8658 17.8963 25.25 14.9056 25.25C11.9148 25.25 9.53057 22.8658 9.53057 19.875C9.53057 16.8842 11.9148 14.5 14.9056 14.5Z" fill="currentColor"/>
<path fill-rule="evenodd" clip-rule="evenodd" d="M12.0833 1.75C17.6062 1.75 21.8473 5.46887 22.7047 10.4651C24.9681 11.5142 26.5945 13.5725 27.0564 16.0766C27.0851 16.2423 27.1 16.4123 27.1 16.5856V19.875C27.1 26.7595 21.7901 32.25 14.9056 32.25C8.02101 32.25 2.71112 26.7595 2.71112 19.875V16.5856C2.71112 16.4123 2.72601 16.2423 2.75471 16.0766C3.21662 13.5725 4.84305 11.5142 7.10645 10.4651C7.96392 5.46887 12.2049 1.75 17.7278 1.75H12.0833ZM12.0833 4.25C15.6978 4.25 18.7044 6.63821 19.4767 9.96779C18.6494 9.80779 17.7907 9.72223 16.9111 9.72223C15.4417 9.72223 14.0387 9.94779 12.7445 10.3539C11.7522 7.69779 9.28335 5.75 6.36112 5.75C6.16837 5.75 5.97892 5.76221 5.79334 5.78612C6.93947 4.82946 8.44337 4.25 10.0833 4.25H12.0833ZM5.21112 16.5856V19.875C5.21112 25.3787 9.40186 29.75 14.9056 29.75C20.4093 29.75 24.6 25.3787 24.6 19.875V16.5856C24.6 13.9498 22.4414 11.7778 19.8056 11.7778C19.1823 11.7778 18.5871 11.908 18.0498 12.1427C17.3614 12.0249 16.6482 11.9611 15.9167 11.9611C15.1851 11.9611 14.472 12.0249 13.7835 12.1427C13.2463 11.908 12.651 11.7778 12.0278 11.7778C9.39195 11.7778 7.23335 13.9498 7.23335 16.5856H5.21112Z" fill="currentColor"/>
</g>
<defs>
<clipPath id="clip0_8215_221">
<rect width="132" height="32" fill="white"/>
</clipPath>
</defs>
</svg>